<svg width="44" height="35" viewBox="0 0 44 35" fill="none" xmlns="http://www.w3.org/2000/svg">
<g clip-path="url(#clip0_155_343)">
<path d="M20.1667 17.5C20.1667 17.8868 20.3599 18.2577 20.7037 18.5312C21.0475 18.8047 21.5139 18.9583 22.0001 18.9583C22.4863 18.9583 22.9526 18.8047 23.2964 18.5312C23.6403 18.2577 23.8334 17.8868 23.8334 17.5C23.8334 17.1132 23.6403 16.7423 23.2964 16.4688C22.9526 16.1953 22.4863 16.0417 22.0001 16.0417C21.5139 16.0417 21.0475 16.1953 20.7037 16.4688C20.3599 16.7423 20.1667 17.1132 20.1667 17.5Z" stroke="#774936" stroke-width="2" stroke-linecap="round" stroke-linejoin="round"/>
<path d="M20.1667 27.7083C20.1667 28.0951 20.3599 28.466 20.7037 28.7395C21.0475 29.013 21.5139 29.1667 22.0001 29.1667C22.4863 29.1667 22.9526 29.013 23.2964 28.7395C23.6403 28.466 23.8334 28.0951 23.8334 27.7083C23.8334 27.3216 23.6403 26.9506 23.2964 26.6771C22.9526 26.4036 22.4863 26.25 22.0001 26.25C21.5139 26.25 21.0475 26.4036 20.7037 26.6771C20.3599 26.9506 20.1667 27.3216 20.1667 27.7083Z" stroke="#774936" stroke-width="2" stroke-linecap="round" stroke-linejoin="round"/>
<path d="M20.1667 7.29168C20.1667 7.67845 20.3599 8.04938 20.7037 8.32287C21.0475 8.59636 21.5139 8.75001 22.0001 8.75001C22.4863 8.75001 22.9526 8.59636 23.2964 8.32287C23.6403 8.04938 23.8334 7.67845 23.8334 7.29168C23.8334 6.9049 23.6403 6.53397 23.2964 6.26048C22.9526 5.98699 22.4863 5.83334 22.0001 5.83334C21.5139 5.83334 21.0475 5.98699 20.7037 6.26048C20.3599 6.53397 20.1667 6.9049 20.1667 7.29168Z" stroke="#774936" stroke-width="2" stroke-linecap="round" stroke-linejoin="round"/>
</g>
<defs>
<clipPath id="clip0_155_343">
<rect width="44" height="35" fill="white"/>
</clipPath>
</defs>
</svg>
