<svg width="84" height="81" viewBox="0 0 84 81" fill="none" xmlns="http://www.w3.org/2000/svg">
<g clip-path="url(#clip0_130_62)">
<path d="M22.1586 27H61.8451C62.8543 26.9999 63.8517 27.2102 64.7688 27.6166C65.6859 28.023 66.501 28.6158 67.1582 29.3544C67.8155 30.093 68.2993 30.9599 68.5766 31.8957C68.8538 32.8315 68.918 33.8141 68.7645 34.776L64.3721 62.289C63.9907 64.68 62.7342 66.8603 60.83 68.4353C58.9258 70.0102 56.4998 70.8757 53.9911 70.875H30.0091C27.5009 70.8749 25.0757 70.0091 23.1723 68.4342C21.2688 66.8593 20.0128 64.6794 19.6316 62.289L15.2391 34.776C15.0856 33.8141 15.1498 32.8315 15.427 31.8957C15.7043 30.9599 16.1881 30.093 16.8454 29.3544C17.5026 28.6158 18.3177 28.023 19.2348 27.6166C20.1519 27.2102 21.1493 26.9999 22.1586 27Z" stroke="#582F0E" stroke-width="2" stroke-linecap="round" stroke-linejoin="round"/>
<path d="M31.5 37.125V20.25C31.5 17.5647 32.6062 14.9894 34.5754 13.0905C36.5445 11.1917 39.2152 10.125 42 10.125C44.7848 10.125 47.4555 11.1917 49.4246 13.0905C51.3938 14.9894 52.5 17.5647 52.5 20.25V37.125" stroke="#582F0E" stroke-width="2" stroke-linecap="round" stroke-linejoin="round"/>
</g>
<defs>
<clipPath id="clip0_130_62">
<rect width="84" height="81" fill="white"/>
</clipPath>
</defs>
</svg>
