<svg width="15" height="14" viewBox="0 0 15 14" fill="none" xmlns="http://www.w3.org/2000/svg">
<g clip-path="url(#clip0_177_94)">
<path d="M7.50007 1.16959C7.01444 1.16959 6.55757 1.38367 6.26819 1.74709L2.91694 5.76917C2.36069 6.43184 2.36069 7.56759 2.91694 8.23492L6.27632 12.2663C6.42019 12.4436 6.6063 12.5872 6.81992 12.6858C7.03354 12.7844 7.2688 12.8352 7.5071 12.8342C7.74539 12.8333 7.98018 12.7806 8.19287 12.6803C8.40557 12.58 8.59034 12.4349 8.73257 12.2564L12.0832 8.23492C12.6394 7.57226 12.6394 6.43651 12.0832 5.76917L8.72382 1.73776C8.58106 1.56093 8.39616 1.41753 8.18376 1.31892C7.97137 1.22031 7.73729 1.16918 7.50007 1.16959Z" fill="#774936"/>
</g>
<defs>
<clipPath id="clip0_177_94">
<rect width="15" height="14" fill="white"/>
</clipPath>
</defs>
</svg>
