<svg width="33" height="35" viewBox="0 0 33 35" fill="none" xmlns="http://www.w3.org/2000/svg">
<g clip-path="url(#clip0_149_228)">
<path d="M12.375 16.0417C12.375 17.202 12.8096 18.3148 13.5832 19.1353C14.3568 19.9557 15.406 20.4167 16.5 20.4167C17.594 20.4167 18.6432 19.9557 19.4168 19.1353C20.1904 18.3148 20.625 17.202 20.625 16.0417C20.625 14.8813 20.1904 13.7685 19.4168 12.9481C18.6432 12.1276 17.594 11.6667 16.5 11.6667C15.406 11.6667 14.3568 12.1276 13.5832 12.9481C12.8096 13.7685 12.375 14.8813 12.375 16.0417Z" stroke="white" stroke-width="2" stroke-linecap="round" stroke-linejoin="round"/>
<path d="M24.2784 24.2915L18.4443 30.4792C17.9286 31.0255 17.2296 31.3324 16.5007 31.3324C15.7718 31.3324 15.0728 31.0255 14.5571 30.4792L8.72163 24.2915C7.18331 22.6598 6.13572 20.581 5.71133 18.3179C5.28693 16.0548 5.5048 13.7091 6.33738 11.5773C7.16996 9.44555 8.57986 7.6235 10.3888 6.34157C12.1977 5.05965 14.3244 4.37543 16.5 4.37543C18.6756 4.37543 20.8023 5.05965 22.6112 6.34157C24.4201 7.6235 25.83 9.44555 26.6626 11.5773C27.4952 13.7091 27.7131 16.0548 27.2887 18.3179C26.8643 20.581 25.8167 22.6598 24.2784 24.2915Z" stroke="white" stroke-width="2" stroke-linecap="round" stroke-linejoin="round"/>
</g>
<defs>
<clipPath id="clip0_149_228">
<rect width="33" height="35" fill="white"/>
</clipPath>
</defs>
</svg>
