<svg width="34" height="34" viewBox="0 0 34 34" fill="none" xmlns="http://www.w3.org/2000/svg">
<g clip-path="url(#clip0_149_246)">
<path d="M5.66675 19.8333V15.5833C5.66675 12.5775 6.86079 9.69487 8.9862 7.56946C11.1116 5.44404 13.9943 4.25 17.0001 4.25C20.0059 4.25 22.8885 5.44404 25.014 7.56946C27.1394 9.69487 28.3334 12.5775 28.3334 15.5833V19.8333" stroke="#170C04" stroke-width="2" stroke-linecap="round" stroke-linejoin="round"/>
<path d="M25.5 26.9167C25.5 29.2641 21.6948 31.1667 17 31.1667" stroke="#170C04" stroke-width="2" stroke-linecap="round" stroke-linejoin="round"/>
<path d="M5.66675 19.8333C5.66675 19.0819 5.96526 18.3612 6.49661 17.8299C7.02797 17.2985 7.74863 17 8.50008 17H9.91675C10.6682 17 11.3889 17.2985 11.9202 17.8299C12.4516 18.3612 12.7501 19.0819 12.7501 19.8333V24.0833C12.7501 24.8348 12.4516 25.5554 11.9202 26.0868C11.3889 26.6182 10.6682 26.9167 9.91675 26.9167H8.50008C7.74863 26.9167 7.02797 26.6182 6.49661 26.0868C5.96526 25.5554 5.66675 24.8348 5.66675 24.0833V19.8333Z" stroke="#170C04" stroke-width="2" stroke-linecap="round" stroke-linejoin="round"/>
<path d="M21.25 19.8333C21.25 19.0819 21.5485 18.3612 22.0799 17.8299C22.6112 17.2985 23.3319 17 24.0833 17H25.5C26.2514 17 26.9721 17.2985 27.5035 17.8299C28.0348 18.3612 28.3333 19.0819 28.3333 19.8333V24.0833C28.3333 24.8348 28.0348 25.5554 27.5035 26.0868C26.9721 26.6182 26.2514 26.9167 25.5 26.9167H24.0833C23.3319 26.9167 22.6112 26.6182 22.0799 26.0868C21.5485 25.5554 21.25 24.8348 21.25 24.0833V19.8333Z" stroke="#170C04" stroke-width="2" stroke-linecap="round" stroke-linejoin="round"/>
</g>
<defs>
<clipPath id="clip0_149_246">
<rect width="34" height="34" fill="white"/>
</clipPath>
</defs>
</svg>
